<svg width="46" height="24" viewBox="0 0 46 24" fill="none" xmlns="http://www.w3.org/2000/svg">
<path d="M1.13453 22.9924C0.378175 22.3206 0 21.4656 0 20.4275C0 19.3893 0.378175 18.5344 1.13453 17.8626L20.1121 1.00763C20.5247 0.64122 20.9716 0.38107 21.4529 0.227177C21.9342 0.0757262 22.4499 0 23 0C23.5501 0 24.0836 0.0916023 24.6007 0.274808C25.115 0.458015 25.5441 0.702289 25.8879 1.00763L44.8655 17.8626C45.6218 18.5344 46 19.3893 46 20.4275C46 21.4656 45.6218 22.3206 44.8655 22.9924C44.1091 23.6641 43.1465 24 41.9776 24C40.8087 24 39.846 23.6641 39.0897 22.9924L23 8.70229L6.91031 22.9924C6.15396 23.6641 5.19133 24 4.02242 24C2.85351 24 1.89088 23.6641 1.13453 22.9924Z" fill="white"/>
</svg>
