<svg width="75" height="81" viewBox="0 0 75 81" fill="none" xmlns="http://www.w3.org/2000/svg">
<path d="M69.7308 65.8125V65.3125H69.2308H11.5385C10.6721 65.3125 9.85991 65.4535 9.10663 65.7409C8.36489 66.0238 7.71148 66.4093 7.15219 66.9001C6.59267 67.391 6.1344 67.9813 5.77676 68.666C5.40894 69.3702 5.23727 70.1127 5.26924 70.8859C5.27077 71.6666 5.43704 72.3986 5.77193 73.0745C6.10152 73.7397 6.54743 74.3193 7.10711 74.8104C7.66598 75.3008 8.33218 75.6978 9.09829 76.0059C9.88176 76.321 10.6994 76.465 11.5468 76.4375H69.2308H69.7308V75.9375V65.8125ZM5.26923 62.0947V62.9018L5.99185 62.5424C7.72451 61.6809 9.57126 61.25 11.5385 61.25H69.2308H69.7308V60.75V5.0625V4.5625H69.2308H11.5385C10.7755 4.5625 10.0188 4.72295 9.27166 5.03651C8.52757 5.34879 7.86188 5.7759 7.27742 6.31726C6.70297 6.84935 6.23396 7.42933 5.87567 8.05813C5.5083 8.70286 5.30378 9.38554 5.26979 10.1013L5.26923 10.1131V10.125V62.0947ZM22.5769 25.3125V25.8125H23.0769H51.9231H52.4231V25.3125V20.25V19.75H51.9231H23.0769H22.5769V20.25V25.3125ZM74.5 0.5V80.5H11.5385C10.0021 80.5 8.57563 80.2458 7.25455 79.7418C5.92352 79.234 4.74146 78.5376 3.70492 77.6533C2.67388 76.7737 1.89268 75.7619 1.35383 74.6171C0.815284 73.473 0.529285 72.2259 0.5 70.8697V10.125C0.5 8.91803 0.793924 7.74433 1.39008 6.59844C1.99099 5.44339 2.80779 4.41085 3.84541 3.50033C4.88307 2.58978 6.06602 1.86764 7.39747 1.33426C8.72144 0.803882 10.1022 0.525793 11.5429 0.5H74.5ZM17.8077 15.6875H57.1923V29.875H17.8077V15.6875Z" fill="white" stroke="white"/>
</svg>
