<svg width="78" height="81" viewBox="0 0 78 81" fill="none" xmlns="http://www.w3.org/2000/svg">
<path d="M75.989 2.08813C75.1174 1.19339 74.0338 0.553443 72.8477 0.232962C71.6615 -0.0875184 70.415 -0.0771718 69.2339 0.262956L5.02563 19.0872C3.67623 19.4816 2.4747 20.2938 1.58128 21.4155C0.687873 22.5371 0.145055 23.915 0.0252323 25.3653C-0.0945907 26.8156 0.214277 28.2693 0.910638 29.5327C1.607 30.796 2.65775 31.8088 3.92275 32.436L33.0112 46.7153L46.7627 76.92C47.3112 78.1461 48.1877 79.1826 49.2876 79.9059C50.3875 80.6293 51.6645 81.009 52.9664 80.9998H53.5523C54.9537 80.8846 56.2871 80.3251 57.3721 79.3969C58.457 78.4687 59.2411 77.2168 59.6182 75.8106L77.7468 9.1025C78.0743 7.87613 78.0843 6.5817 77.7756 5.35005C77.467 4.1184 76.8507 2.99318 75.989 2.08813ZM52.6562 69.7625L41.076 44.3891L54.6208 30.3603C55.3977 29.5536 55.8342 28.4594 55.8342 27.3184C55.8342 26.1774 55.3977 25.0832 54.6208 24.2765C53.8438 23.4697 52.79 23.0164 51.6912 23.0164C50.5924 23.0164 49.5387 23.4697 48.7617 24.2765L35.2514 38.341L10.8157 26.3163L69.096 9.24565L52.6562 69.7625Z" fill="white"/>
</svg>
