<svg width="53" height="50" viewBox="0 0 53 50" fill="none" xmlns="http://www.w3.org/2000/svg">
<path d="M21.9135 29C18.9004 29 16.321 27.9719 14.1753 25.9156C12.0296 23.8594 10.9567 21.3875 10.9567 18.5C10.9567 15.6125 12.0296 13.1406 14.1753 11.0844C16.321 9.02813 18.9004 8 21.9135 8C24.9266 8 27.506 9.02813 29.6517 11.0844C31.7973 13.1406 32.8702 15.6125 32.8702 18.5C32.8702 21.3875 31.7973 23.8594 29.6517 25.9156C27.506 27.9719 24.9266 29 21.9135 29ZM5.47837 50C3.97181 50 2.68257 49.4864 1.61064 48.4591C0.536879 47.4301 0 46.1938 0 44.75V42.65C0 41.1625 0.399921 39.7949 1.19976 38.5471C1.99778 37.3011 3.05875 36.35 4.38269 35.6938C7.21318 34.3375 10.0893 33.3199 13.0111 32.6409C15.9329 31.9636 18.9004 31.625 21.9135 31.625C24.9266 31.625 27.894 31.9636 30.8158 32.6409C33.7376 33.3199 36.6137 34.3375 39.4442 35.6938C40.7682 36.35 41.8291 37.3011 42.6272 38.5471C43.427 39.7949 43.8269 41.1625 43.8269 42.65V44.75C43.8269 46.1938 43.291 47.4301 42.219 48.4591C41.1453 49.4864 39.8551 50 38.3486 50H5.47837Z" fill="white"/>
</svg>
