<svg width="78" height="76" viewBox="0 0 78 76" fill="none" xmlns="http://www.w3.org/2000/svg">
<path d="M22.308 54.9568L29.1759 53.0265L70.5275 12.2549C70.8537 11.9293 71.0353 11.4917 71.0331 11.0367C71.0309 10.5817 70.8451 10.1457 70.5158 9.82307L68.0393 7.38362C67.8793 7.22341 67.6881 7.09586 67.4769 7.00842C67.2657 6.92097 67.0388 6.87539 66.8094 6.87433C66.5799 6.87327 66.3525 6.91675 66.1405 7.00224C65.9285 7.08772 65.7361 7.21349 65.5745 7.37222L24.3321 48.0374L22.3041 54.953L22.308 54.9568ZM72.9416 2.5503L75.4181 4.99356C78.8345 8.36396 78.8657 13.8014 75.4805 17.1376L32.8692 59.1556L18.1896 63.2745C17.2933 63.519 16.3342 63.407 15.5226 62.9632C14.711 62.5194 14.1133 61.78 13.8606 60.9073C13.6725 60.2798 13.6698 59.6135 13.8528 58.9846L18.1233 44.3934L60.6215 2.4857C61.4296 1.69291 62.3917 1.06482 63.4515 0.63807C64.5114 0.211319 65.6478 -0.00555113 66.7946 0.000107963C67.9414 0.00576706 69.0756 0.233842 70.1309 0.671031C71.1863 1.10822 72.1418 1.74957 72.9416 2.5503ZM28.0176 6.93144C29.952 6.93144 31.5198 8.47795 31.5198 10.3854C31.5228 10.8364 31.4347 11.2834 31.2603 11.7011C31.0859 12.1188 30.8287 12.4989 30.5035 12.8197C30.1782 13.1405 29.7912 13.3957 29.3647 13.5706C28.9381 13.7456 28.4804 13.837 28.0176 13.8394H14.0088C10.14 13.8394 7.00439 16.9325 7.00439 20.7436V62.184C7.00439 65.999 10.14 69.092 14.0088 69.092H56.0351C59.9039 69.092 63.0434 65.999 63.0434 62.184V48.3718C63.0434 46.4643 64.6112 44.9178 66.5456 44.9178C68.48 44.9178 70.0478 46.4643 70.0478 48.3756V62.184C70.0478 69.814 63.7727 76 56.0351 76H14.0088C6.27119 76 0 69.814 0 62.184V20.7436C0 13.1175 6.27119 6.93144 14.0088 6.93144H28.0176Z" fill="white"/>
</svg>
